<svg version="1.1" xmlns="http://www.w3.org/2000/svg" xmlns:xlink="http://www.w3.org/1999/xlink" x="0px" y="0px" width="50px" height="58px" viewBox="0 0 50 58" enable-background="new 0 0 50 58" xml:space="preserve">
<g id="outline">
	<path fill="#A6A8AB" d="M29.054,58c-2.923,0-5.3-2.382-5.3-5.309V18.128l-6.599,6.61c-1.001,1.003-2.333,1.555-3.748,1.555,c-1.415,0-2.746-0.552-3.748-1.555c-2.066-2.071-2.066-5.439,0-7.509L25.306,1.556C26.307,0.552,27.638,0,29.054,0,c1.415,0,2.747,0.552,3.747,1.556l15.646,15.674C49.448,18.232,50,19.565,50,20.984c0,1.418-0.551,2.751-1.553,3.754,c-1,1.002-2.33,1.555-3.748,1.555c-1.416,0-2.746-0.552-3.747-1.555l-6.599-6.61v34.563C34.354,55.618,31.977,58,29.054,58z"/>
	<path fill="#A6A8AB" d="M10.562,54.135c-2.188,0-3.967-1.781-3.967-3.973v-8.653c-1.512,1.345-3.993,1.278-5.434-0.166,C0.413,40.593,0,39.595,0,38.533c0-1.062,0.413-2.061,1.163-2.811l6.595-6.607c1.503-1.501,4.114-1.5,5.61,0l6.596,6.607,c0.749,0.75,1.162,1.748,1.162,2.811c0,1.062-0.413,2.06-1.163,2.811c-1.439,1.442-3.92,1.51-5.433,0.165v8.653,C14.529,52.354,12.75,54.135,10.562,54.135z"/>
</g>
<g id="arrows">
	<path fill="#FFFFFF" d="M46.68,19L31.033,3.326c-1.094-1.096-2.866-1.096-3.96,0L11.427,19c-1.093,1.095-1.093,2.871,0,3.967,c1.094,1.096,2.867,1.095,3.96,0l10.867-10.885v40.609c0,1.549,1.253,2.805,2.8,2.805c1.546,0,2.8-1.256,2.8-2.805V12.082,L42.72,22.967c0.547,0.548,1.264,0.821,1.979,0.821c0.717,0,1.434-0.273,1.98-0.821C47.773,21.872,47.773,20.096,46.68,19z"/>
	<path fill="#FFFFFF" d="M11.6,30.887c-0.275-0.275-0.648-0.431-1.037-0.431c-0.389,0-0.762,0.155-1.037,0.431L2.93,37.494,c-0.573,0.574-0.573,1.504,0,2.078c0.573,0.573,1.501,0.573,2.074,0l4.092-4.1v14.689c0,0.811,0.657,1.469,1.467,1.469,s1.467-0.658,1.467-1.469V35.473l4.092,4.1c0.287,0.286,0.662,0.43,1.037,0.43c0.375,0,0.751-0.144,1.037-0.43,c0.573-0.574,0.573-1.504,0-2.078L11.6,30.887z"/>
</g>
</svg>