<svg xmlns="http://www.w3.org/2000/svg" xmlns:xlink="http://www.w3.org/1999/xlink" width="81px" height="81px">
<g id="Layer_1">
	<circle fill="#2F98BA" cx="40.5" cy="40.5" r="39"/>
	<circle fill="#5DBEEC" cx="40.5" cy="40.5" r="27"/>
	<path fill="#2CADDA" d="M67.5,40.5c0-0.748-0.038-1.486-0.099-2.218L47.706,18.586l-4.803,6.874l3.755,3.755L46.32,30.23,l-2.03,1.185l-7.445-2.707l-4.568,1.015l-2.26,8.23l5.813,5.813l-4.399,4.569l-11.844-0.339L39.049,67.46,c0.48,0.025,0.962,0.04,1.449,0.04C55.408,67.5,67.5,55.411,67.5,40.5z"/>
	<g>
		<path fill="#FFFFFF" d="M36.596,46.964c1.721,2.258,3.06,3.954,4.311,5.714c0.224,0.315,0.192,0.916,0.092,1.338,c-0.538,2.266-1.122,4.519-1.714,6.77c-0.345,1.31-0.037,2.274,1.36,2.644c1.296,0.342,2.17-0.065,2.63-1.432,c1.075-3.185,2.302-6.317,3.3-9.524c0.232-0.743,0.027-1.833-0.382-2.521c-1.027-1.718-2.304-3.282-3.436-4.938,c-0.254-0.368-0.586-0.975-0.448-1.274c1.089-2.378,2.283-4.709,3.562-7.29c0.971,1.035,1.612,1.965,2.481,2.569,c0.724,0.502,1.753,0.943,2.578,0.846c2.629-0.315,5.225-0.917,7.841-1.36c1.114-0.189,1.815-0.625,1.71-1.896,c-0.105-1.272-0.889-1.597-2.004-1.603c-2.062-0.012-4.127,0.01-6.179-0.138c-0.645-0.046-1.432-0.44-1.845-0.935,c-1.211-1.456-2.124-3.178-3.434-4.526c-0.831-0.857-2.123-1.649-3.269-1.748c-3.615-0.31-7.258-0.329-10.89-0.322,c-0.54,0.001-1.403,0.651-1.562,1.169c-0.804,2.631-1.39,5.329-2.125,7.983c-0.312,1.123,0.012,1.822,1.092,2.119,c1.008,0.277,1.812,0.051,2.156-1.103c0.368-1.244,0.854-2.455,1.192-3.708c0.526-1.941,0.803-2.145,2.688-1.703,c0.662,0.155,1.332,0.279,1.968,0.411c0.016,0.312,0.079,0.494,0.025,0.631c-1.953,4.964-4.243,9.726-8.342,13.334,c-0.349,0.308-1.057,0.436-1.528,0.33c-2.112-0.468-4.201-1.048-6.297-1.593c-1.3-0.338-2.374-0.225-2.838,1.296,c-0.458,1.502,0.285,2.195,1.606,2.646c2.975,1.016,5.943,2.054,8.885,3.161c1.128,0.426,1.981,0.261,2.75-0.642,C33.829,50.148,35.146,48.642,36.596,46.964z M45.764,18.134c-2.23,0.025-4.046,1.851-4.038,4.06,c0.008,2.2,1.846,4.042,4.055,4.062c2.296,0.022,4.121-1.842,4.075-4.161C49.812,19.836,48.026,18.108,45.764,18.134z"/>
		<path fill-rule="evenodd" clip-rule="evenodd" fill="#FFFFFF" d="M36.596,46.964c-1.451,1.678-2.768,3.185-4.065,4.706,c-0.769,0.902-1.621,1.067-2.75,0.642c-2.941-1.107-5.91-2.146-8.885-3.161c-1.321-0.451-2.064-1.145-1.606-2.646,c0.464-1.521,1.538-1.634,2.838-1.296c2.096,0.545,4.185,1.125,6.297,1.593c0.471,0.105,1.179-0.022,1.528-0.33,c4.1-3.608,6.39-8.37,8.342-13.334c0.054-0.137-0.009-0.319-0.025-0.631c-0.636-0.131-1.306-0.255-1.968-0.411,c-1.885-0.441-2.162-0.238-2.688,1.703c-0.338,1.252-0.824,2.464-1.192,3.708c-0.344,1.153-1.148,1.38-2.156,1.103,c-1.08-0.296-1.404-0.996-1.092-2.119c0.736-2.654,1.321-5.352,2.125-7.983c0.158-0.518,1.022-1.168,1.562-1.169,c3.631-0.007,7.274,0.013,10.89,0.322c1.146,0.098,2.438,0.891,3.269,1.748c1.31,1.349,2.223,3.07,3.434,4.526,c0.413,0.494,1.2,0.889,1.845,0.935c2.052,0.148,4.117,0.126,6.179,0.138c1.115,0.006,1.898,0.33,2.004,1.603,c0.105,1.27-0.596,1.707-1.71,1.896c-2.616,0.443-5.212,1.045-7.841,1.36c-0.825,0.098-1.854-0.344-2.578-0.846,c-0.869-0.604-1.511-1.534-2.481-2.569c-1.278,2.581-2.473,4.912-3.562,7.29c-0.138,0.3,0.194,0.906,0.448,1.274,c1.132,1.656,2.408,3.221,3.436,4.938c0.409,0.688,0.614,1.777,0.382,2.521c-0.998,3.207-2.225,6.34-3.3,9.524,c-0.46,1.366-1.334,1.773-2.63,1.432c-1.396-0.369-1.705-1.334-1.36-2.644c0.592-2.251,1.176-4.504,1.714-6.77,c0.1-0.422,0.131-1.022-0.092-1.338C39.656,50.918,38.317,49.222,36.596,46.964z"/>
		<path fill-rule="evenodd" clip-rule="evenodd" fill="#FFFFFF" d="M45.764,18.134c2.263-0.026,4.048,1.703,4.092,3.961c0.046,2.319-1.779,4.183-4.075,4.161c-2.209-0.021-4.047-1.863-4.055-4.062C41.718,19.984,43.533,18.159,45.764,18.134z"/>
	</g>
</g>
<g id="Layer_2">
	<circle fill="none" stroke="#FFFFFF" stroke-width="3" stroke-miterlimit="10" cx="40.5" cy="40.5" r="39"/>
</g>
</svg>
