<?xml version="1.0" encoding="utf-8"?>
<!-- Generator: Adobe Illustrator 16.0.4, SVG Export Plug-In . SVG Version: 6.00 Build 0)  -->
<!DOCTYPE svg PUBLIC "-//W3C//DTD SVG 1.1//EN" "http://www.w3.org/Graphics/SVG/1.1/DTD/svg11.dtd">
<svg version="1.1" id="Layer_1" xmlns="http://www.w3.org/2000/svg" xmlns:xlink="http://www.w3.org/1999/xlink" x="0px" y="0px"
	 width="128.891px" height="25.177px" viewBox="0 0 128.891 25.177" enable-background="new 0 0 128.891 25.177"
	 xml:space="preserve">
<g>
	
	
	<path clip-path="url(#SVGID_2_)" fill="#F57838" d="M84.722,3.936c1.046,0,1.904-0.861,1.904-1.913c0-1.05-0.858-1.906-1.904-1.906
		c-1.058,0-1.905,0.856-1.905,1.906C82.816,3.075,83.664,3.936,84.722,3.936 M52.724,7.599h3.043v1.809h0.077
		c0.755-1.631,1.308-2.013,2.907-2.013v3.248c-1.63,0-2.769,0.45-2.769,2.253v12.075h-3.258V7.599z M44.416,15.032h3.151v-3.381
		c0-1.549-0.45-2.178-1.556-2.178c-1.213,0-1.595,0.655-1.595,1.906V15.032z M41.17,12.069c0-2.94,1.69-4.674,4.702-4.674
		c2.587,0,4.738,1.105,4.738,4.326v5.598h-6.194v3.709c0,1.621,0.553,2.071,1.595,2.071c1.208,0,1.556-0.859,1.556-2.243v-1.595
		h3.043v2.453c0,1.761-1.25,3.461-4.84,3.461c-2.459,0-4.6-1.105-4.6-4.319V12.069z M32.964,15.032h3.14v-3.381
		c0-1.549-0.44-2.178-1.551-2.178c-1.208,0-1.589,0.655-1.589,1.906V15.032z M29.706,12.069c0-2.94,1.697-4.674,4.713-4.674
		c2.586,0,4.733,1.105,4.733,4.326v5.598h-6.188v3.709c0,1.621,0.553,2.071,1.589,2.071c1.207,0,1.551-0.859,1.551-2.243v-1.595
		h3.048v2.453c0,1.761-1.245,3.461-4.835,3.461c-2.464,0-4.611-1.105-4.611-4.319V12.069z M22.274,7.599h3.042v1.809h0.07
		c0.757-1.631,1.315-2.013,2.903-2.013v3.248c-1.62,0-2.77,0.45-2.77,2.253v12.075h-3.245V7.599z M15.758,16.429
		c-1.524,0-1.938,0.819-1.938,3.553c0,2.559,0.237,2.914,1.277,2.914c1.112,0,1.696-0.838,1.696-2.014v-4.453H15.758z
		 M10.809,11.168c0-2.566,1.556-3.773,4.632-3.773c2.974,0,4.606,1.175,4.606,4.219v13.357h-3.049v-1.803
		c-0.376,0.381-0.59,0.724-0.934,1.073c-0.591,0.58-1.481,0.934-2.319,0.934c-1.932,0-3.176-0.59-3.176-4.742
		c0-3.49,0.278-4.289,1.179-5.223c0.753-0.79,1.31-1.069,5.045-1.069v-2.806c0-0.998-0.236-1.658-1.352-1.658
		c-0.89,0-1.384,0.386-1.384,1.459v1.583h-3.248V11.168z M0,12.069c0-2.94,1.691-4.674,4.568-4.674c2.93,0,4.219,1.455,4.219,3.452
		v2.603H5.738v-1.904c0-1.311-0.483-1.869-1.245-1.869c-0.763,0-1.246,0.692-1.246,2.044v9.548c0,1.036,0.387,1.626,1.246,1.626
		c0.87,0,1.245-0.629,1.245-1.7v-2.073h3.049v2.63c0,2.625-2.18,3.424-4.192,3.424C2.142,25.176,0,24.07,0,20.856V12.069z"/>
	<path clip-path="url(#SVGID_2_)" fill="#2B2F71" d="M126.617,9.34c0.315,0,0.583-0.026,0.583-0.381
		c0-0.283-0.304-0.327-0.553-0.327h-0.483V9.34H126.617z M126.562,9.7h-0.397v1.084h-0.429V8.272h0.986
		c0.624,0,0.945,0.209,0.945,0.726c0,0.46-0.288,0.642-0.632,0.658l0.676,1.128h-0.495L126.562,9.7z M126.692,11.293
		c0.972,0,1.727-0.773,1.727-1.765c0-0.976-0.755-1.754-1.727-1.754c-0.979,0-1.72,0.778-1.72,1.754
		C124.973,10.52,125.714,11.293,126.692,11.293 M126.692,7.338c1.218,0,2.198,0.982,2.198,2.19c0,1.207-0.98,2.206-2.198,2.206
		c-1.203,0-2.19-0.999-2.19-2.206C124.502,8.32,125.489,7.338,126.692,7.338 M117.099,7.6h3.039v1.809h0.07
		c0.768-1.632,1.314-2.013,2.903-2.013v3.247c-1.621,0-2.77,0.45-2.77,2.254v12.074h-3.243V7.6z M108.781,15.032h3.15v-3.38
		c0-1.55-0.445-2.178-1.556-2.178c-1.206,0-1.595,0.655-1.595,1.905V15.032z M105.534,12.069c0-2.94,1.69-4.673,4.707-4.673
		c2.587,0,4.732,1.105,4.732,4.326v5.597h-6.192v3.709c0,1.621,0.559,2.071,1.595,2.071c1.207,0,1.556-0.858,1.556-2.243v-1.594
		h3.042v2.453c0,1.76-1.242,3.462-4.84,3.462c-2.457,0-4.6-1.107-4.6-4.321V12.069z M97.437,20.608c0,2.015,0.558,2.49,1.428,2.49
		c0.654,0,1.308-0.558,1.308-1.83v-8.748c0-2.152-0.583-2.844-1.486-2.844c-0.723,0-1.249,0.489-1.249,2.35V20.608z M94.194,11.411
		c0-2.561,1.139-4.015,3.038-4.015c0.521,0,1.116,0.107,1.632,0.344c0.514,0.246,0.966,0.622,1.239,1.11h0.068V0h3.253v24.971
		h-3.037v-1.254h-0.074c-0.344,0.45-0.826,0.831-1.385,1.073c-0.515,0.246-1.106,0.387-1.696,0.387c-1.899,0-3.038-1.46-3.038-4.015
		V11.411z M88.698,0h3.253v24.971h-3.253V0z M83.122,7.6h3.249v17.368h-3.249V7.6z M80.837,24.971h-3.044v-1.454h-0.065
		c-0.311,0.518-0.718,0.94-1.242,1.209c-0.516,0.311-1.112,0.451-1.761,0.451c-1.634,0-3.044-0.864-3.044-3.425V7.6h3.246v13.523
		c0,0.902,0.242,1.568,1.245,1.568c0.794,0,1.419-0.488,1.419-1.836V7.6h3.246V24.971z M66.238,12.027
		c0-1.861-0.521-2.35-1.239-2.35c-0.902,0-1.492,0.692-1.492,2.844v8.748c0,1.272,0.655,1.83,1.315,1.83
		c0.864,0,1.416-0.476,1.416-2.49V12.027z M60.254,0h3.253v8.85h0.065c0.284-0.488,0.735-0.864,1.25-1.11
		c0.521-0.237,1.104-0.344,1.62-0.344c1.905,0,3.054,1.454,3.054,4.015v9.751c0,2.555-1.148,4.015-3.054,4.015
		c-1.305,0-2.452-0.629-3.074-1.46h-0.066v1.254h-3.048V0z"/>
</g>
</svg>
